<svg width="159" height="34" viewBox="0 0 159 34" fill="none" xmlns="http://www.w3.org/2000/svg" class="w-32"><path d="M45.2569 26H48.9769V11.36H53.4409V8.12003H40.7209V11.36H45.2569V26Z" fill="#303030"></path> <path d="M56.6454 26.288C58.2774 26.288 59.5894 25.784 60.5814 24.776V26H63.9414V17.36C63.9414 16.416 63.7014 15.592 63.2214 14.888C62.7574 14.168 62.1014 13.608 61.2534 13.208C60.4054 12.808 59.4294 12.608 58.3254 12.608C56.9334 12.608 55.7094 12.928 54.6534 13.568C53.6134 14.208 52.9014 15.072 52.5174 16.16L55.3974 17.528C55.6214 16.952 55.9734 16.488 56.4534 16.136C56.9494 15.784 57.5174 15.608 58.1574 15.608C58.8294 15.608 59.3574 15.776 59.7414 16.112C60.1414 16.448 60.3414 16.864 60.3414 17.36V17.72L56.7174 18.296C55.1494 18.552 53.9814 19.04 53.2134 19.76C52.4454 20.48 52.0614 21.392 52.0614 22.496C52.0614 23.68 52.4694 24.608 53.2854 25.28C54.1174 25.952 55.2374 26.288 56.6454 26.288ZM55.7814 22.376C55.7814 21.944 55.9174 21.616 56.1894 21.392C56.4614 21.152 56.8534 20.984 57.3654 20.888L60.3414 20.36V20.768C60.3414 21.568 60.0694 22.248 59.5254 22.808C58.9814 23.368 58.2614 23.648 57.3654 23.648C56.9174 23.648 56.5414 23.536 56.2374 23.312C55.9334 23.088 55.7814 22.776 55.7814 22.376Z" fill="#303030"></path> <path d="M71.6593 26.144C72.2513 26.144 72.8113 26.104 73.3393 26.024V22.952C73.0033 23 72.7233 23.024 72.4993 23.024C71.0113 23.024 70.2673 22.36 70.2673 21.032V16.016H73.3393V12.896H70.2673V9.92003H66.6673V10.88C66.6673 12.224 65.9713 12.896 64.5793 12.896H64.4593V16.016H66.6673V21.272C66.6673 22.808 67.0993 24.008 67.9633 24.872C68.8433 25.72 70.0753 26.144 71.6593 26.144Z" fill="#303030"></path> <path d="M80.7608 26.144C81.3528 26.144 81.9128 26.104 82.4408 26.024V22.952C82.1048 23 81.8248 23.024 81.6008 23.024C80.1128 23.024 79.3688 22.36 79.3688 21.032V16.016H82.4408V12.896H79.3688V9.92003H75.7688V10.88C75.7688 12.224 75.0728 12.896 73.6808 12.896H73.5608V16.016H75.7688V21.272C75.7688 22.808 76.2008 24.008 77.0648 24.872C77.9448 25.72 79.1768 26.144 80.7608 26.144Z" fill="#303030"></path> <path d="M90.0544 26.288C91.3504 26.288 92.5264 25.992 93.5824 25.4C94.6384 24.808 95.4784 24 96.1024 22.976C96.7424 21.936 97.0624 20.76 97.0624 19.448C97.0624 18.12 96.7424 16.944 96.1024 15.92C95.4784 14.896 94.6384 14.088 93.5824 13.496C92.5264 12.904 91.3504 12.608 90.0544 12.608C88.7584 12.608 87.5744 12.904 86.5024 13.496C85.4464 14.088 84.5984 14.896 83.9584 15.92C83.3344 16.944 83.0224 18.12 83.0224 19.448C83.0224 20.76 83.3344 21.936 83.9584 22.976C84.5984 24 85.4464 24.808 86.5024 25.4C87.5744 25.992 88.7584 26.288 90.0544 26.288ZM90.0544 23.048C89.0784 23.048 88.2784 22.712 87.6544 22.04C87.0464 21.368 86.7424 20.504 86.7424 19.448C86.7424 18.408 87.0464 17.552 87.6544 16.88C88.2784 16.192 89.0784 15.848 90.0544 15.848C91.0304 15.848 91.8224 16.192 92.4304 16.88C93.0384 17.552 93.3424 18.408 93.3424 19.448C93.3424 20.504 93.0384 21.368 92.4304 22.04C91.8224 22.712 91.0304 23.048 90.0544 23.048Z" fill="#303030"></path> <path d="M104.687 26.288C105.983 26.288 107.159 25.992 108.215 25.4C109.271 24.808 110.111 24 110.735 22.976C111.375 21.936 111.695 20.76 111.695 19.448C111.695 18.12 111.375 16.944 110.735 15.92C110.111 14.896 109.271 14.088 108.215 13.496C107.159 12.904 105.983 12.608 104.687 12.608C103.391 12.608 102.207 12.904 101.135 13.496C100.079 14.088 99.2312 14.896 98.5912 15.92C97.9672 16.944 97.6552 18.12 97.6552 19.448C97.6552 20.76 97.9672 21.936 98.5912 22.976C99.2312 24 100.079 24.808 101.135 25.4C102.207 25.992 103.391 26.288 104.687 26.288ZM104.687 23.048C103.711 23.048 102.911 22.712 102.287 22.04C101.679 21.368 101.375 20.504 101.375 19.448C101.375 18.408 101.679 17.552 102.287 16.88C102.911 16.192 103.711 15.848 104.687 15.848C105.663 15.848 106.455 16.192 107.063 16.88C107.671 17.552 107.975 18.408 107.975 19.448C107.975 20.504 107.671 21.368 107.063 22.04C106.455 22.712 105.663 23.048 104.687 23.048Z" fill="#303030"></path> <path d="M112.816 11.72H116.416V8.12003H112.816V11.72ZM112.816 26H116.416V12.896H112.816V26Z" fill="#303030"></path> <path d="M124.218 26.288C125.018 26.288 125.762 26.16 126.45 25.904C127.154 25.632 127.738 25.248 128.202 24.752V26H131.562V7.83203H127.962V14C127.034 13.072 125.778 12.608 124.194 12.608C122.946 12.608 121.818 12.912 120.81 13.52C119.802 14.128 119.002 14.952 118.41 15.992C117.818 17.016 117.522 18.168 117.522 19.448C117.522 20.712 117.81 21.864 118.386 22.904C118.978 23.944 119.778 24.768 120.786 25.376C121.794 25.984 122.938 26.288 124.218 26.288ZM124.65 23.048C123.658 23.048 122.842 22.712 122.202 22.04C121.562 21.368 121.242 20.504 121.242 19.448C121.242 18.408 121.562 17.552 122.202 16.88C122.842 16.192 123.658 15.848 124.65 15.848C125.626 15.848 126.418 16.184 127.026 16.856C127.65 17.528 127.962 18.392 127.962 19.448C127.962 20.52 127.65 21.392 127.026 22.064C126.418 22.72 125.626 23.048 124.65 23.048Z" fill="#303030"></path> <path d="M139.511 26.288C140.855 26.288 142.031 26 143.039 25.424C144.047 24.832 144.751 24.056 145.151 23.096L142.271 21.728C142.015 22.176 141.655 22.528 141.191 22.784C140.743 23.04 140.199 23.168 139.559 23.168C138.679 23.168 137.959 22.92 137.399 22.424C136.839 21.928 136.511 21.272 136.415 20.456H145.583C145.647 20.28 145.687 20.072 145.703 19.832C145.735 19.576 145.751 19.32 145.751 19.064C145.751 17.848 145.495 16.76 144.983 15.8C144.487 14.824 143.759 14.048 142.799 13.472C141.839 12.896 140.663 12.608 139.271 12.608C138.023 12.608 136.903 12.904 135.911 13.496C134.919 14.088 134.127 14.896 133.535 15.92C132.959 16.944 132.671 18.112 132.671 19.424C132.671 20.688 132.951 21.84 133.511 22.88C134.071 23.92 134.863 24.752 135.887 25.376C136.911 25.984 138.119 26.288 139.511 26.288ZM139.271 15.488C140.007 15.488 140.615 15.704 141.095 16.136C141.575 16.568 141.855 17.128 141.935 17.816H136.487C136.663 17.064 136.991 16.488 137.471 16.088C137.967 15.688 138.567 15.488 139.271 15.488Z" fill="#303030"></path> <path d="M150.927 26.288C152.559 26.288 153.871 25.784 154.863 24.776V26H158.223V17.36C158.223 16.416 157.983 15.592 157.503 14.888C157.039 14.168 156.383 13.608 155.535 13.208C154.687 12.808 153.711 12.608 152.607 12.608C151.215 12.608 149.991 12.928 148.935 13.568C147.895 14.208 147.183 15.072 146.799 16.16L149.679 17.528C149.903 16.952 150.255 16.488 150.735 16.136C151.231 15.784 151.799 15.608 152.439 15.608C153.111 15.608 153.639 15.776 154.023 16.112C154.423 16.448 154.623 16.864 154.623 17.36V17.72L150.999 18.296C149.431 18.552 148.263 19.04 147.495 19.76C146.727 20.48 146.343 21.392 146.343 22.496C146.343 23.68 146.751 24.608 147.567 25.28C148.399 25.952 149.519 26.288 150.927 26.288ZM150.063 22.376C150.063 21.944 150.199 21.616 150.471 21.392C150.743 21.152 151.135 20.984 151.647 20.888L154.623 20.36V20.768C154.623 21.568 154.351 22.248 153.807 22.808C153.263 23.368 152.543 23.648 151.647 23.648C151.199 23.648 150.823 23.536 150.519 23.312C150.215 23.088 150.063 22.776 150.063 22.376Z" fill="#303030"></path> <path d="M18.602 20.8358L19.8339 21.5865V26.2385L22.5976 27.13L24.391 27.0377L25.0761 28.8937L22.3418 29.2192L16.1852 28.0386L15.8912 23.5882L14.4212 23.2456L18.602 20.8358ZM23.6884 11.0386L22.7622 13.3828L23.0709 13.7545L24.6997 13.5431L26.699 7.53315L29.1216 6.07559L27.6986 3.88925L24.3293 5.13061L22.6123 9.3964L23.6884 11.0386ZM22.1242 13.3367L23.0062 11.1066L21.4451 8.74293L17.6553 7.90483V7.45299L21.1834 6.96713L20.7159 5.68934L18.3638 5.75493L18.1227 4.66662L21.0246 4.31923L21.4774 2.45842L15.5413 1.40654L14.5888 0H9.07314L5.95075 4.65933L8.82617 12.3115L15.3208 13.5091L12.6601 13.3099L13.3422 15.1951L12.2043 17.0219L9.23778 17.583L7.07681 20.9451L7.25616 20.2334L5.36273 20.6147L4.56303 20.3087L4.04557 19.179L7.10033 15.1465L5.95075 12.1147L2.64021 11.5317L1.11429 12.1998L0 13.9659L0.29401 15.625L1.79346 15.1392L3.37523 13.8176L3.51929 12.6492L5.10107 12.9286L5.73613 14.9837L2.06689 19.179L2.97244 21.7565L5.13047 22.8302H7.84712L6.84454 22.9444L7.17383 24.8684L3.93973 27.3511L6.12422 34H10.161V31.4614L8.21169 31.08L7.62367 28.5487L12.5454 25.1113L13.1069 20.933L13.2246 22.9104L13.7097 23.0294L19.7516 19.5119L20.3896 17.8114L17.3319 15.2995L21.5097 18.0835L30.0948 15.8534L32 14.0581L30.0713 12.1803L27.6281 13.6743L22.5358 14.4493L21.4715 12.9067L22.1242 13.3367Z" fill="#07D6A4"></path></svg>